<?xml version="1.0" encoding="UTF-8" standalone="no"?>
<!-- Generator: Adobe Illustrator 16.0.0, SVG Export Plug-In . SVG Version: 6.00 Build 0)  -->

<svg
   version="1.1"
   id="Capa_1"
   x="0px"
   y="0px"
   width="459.319px"
   height="459.319px"
   viewBox="0 0 459.319 459.319"
   style="enable-background:new 0 0 459.319 459.319;"
   xml:space="preserve"
   sodipodi:docname="logo.svg"
   inkscape:version="1.1 (c4e8f9e, 2021-05-24)"
   xmlns:inkscape="http://www.inkscape.org/namespaces/inkscape"
   xmlns:sodipodi="http://sodipodi.sourceforge.net/DTD/sodipodi-0.dtd"
   xmlns:xlink="http://www.w3.org/1999/xlink"
   xmlns="http://www.w3.org/2000/svg"
   xmlns:svg="http://www.w3.org/2000/svg"><defs
   id="defs117"><clipPath
     clipPathUnits="userSpaceOnUse"
     id="clipPath1204"><use
       x="0"
       y="0"
       xlink:href="#g1200"
       id="use1206" /></clipPath></defs><sodipodi:namedview
   id="namedview115"
   pagecolor="#ffffff"
   bordercolor="#666666"
   borderopacity="1.0"
   inkscape:pageshadow="2"
   inkscape:pageopacity="0.0"
   inkscape:pagecheckerboard="0"
   showgrid="false"
   inkscape:zoom="0.69029312"
   inkscape:cx="358.54334"
   inkscape:cy="257.13714"
   inkscape:window-width="1792"
   inkscape:window-height="981"
   inkscape:window-x="0"
   inkscape:window-y="25"
   inkscape:window-maximized="0"
   inkscape:current-layer="layer1" />

<g
   id="g84">
</g>
<g
   id="g86">
</g>
<g
   id="g88">
</g>
<g
   id="g90">
</g>
<g
   id="g92">
</g>
<g
   id="g94">
</g>
<g
   id="g96">
</g>
<g
   id="g98">
</g>
<g
   id="g100">
</g>
<g
   id="g102">
</g>
<g
   id="g104">
</g>
<g
   id="g106">
</g>
<g
   id="g108">
</g>
<g
   id="g110">
</g>
<g
   id="g112">
</g>
<g
   inkscape:groupmode="layer"
   id="layer1"
   inkscape:label="Book"
   style="display:inline"
   sodipodi:insensitive="true"><g
     id="g82">
	
<g
   id="g1202"
   clip-path="url(#clipPath1204)"
   style="fill:#c8beb7"><g
     inkscape:label="Clip"
     id="g1200"
     style="fill:#c8beb7"><path
       d="m 94.924,366.674 h 312.874 c 0.958,0 1.886,-0.136 2.778,-0.349 0.071,0 0.13,0.012 0.201,0.012 6.679,0 12.105,-5.42 12.105,-12.104 V 12.105 C 422.883,5.423 417.456,0 410.777,0 H 407.822 114.284 94.941 c -32.22,0 -58.428,26.214 -58.428,58.425 0,0.432 0.085,0.842 0.127,1.259 -0.042,29.755 -0.411,303.166 -0.042,339.109 -0.023,0.703 -0.109,1.389 -0.109,2.099 0,30.973 24.252,56.329 54.757,58.245 0.612,0.094 1.212,0.183 1.847,0.183 h 317.683 c 6.679,0 12.105,-5.42 12.105,-12.105 V 401.65 c 0,-6.68 -5.427,-12.105 -12.105,-12.105 -6.678,0 -12.105,5.426 -12.105,12.105 v 33.461 H 94.924 c -18.395,0 -33.411,-14.605 -34.149,-32.817 0.018,-0.325 0.077,-0.632 0.071,-0.963 -0.012,-0.532 -0.03,-1.359 -0.042,-2.459 1.058,-17.924 15.935,-32.198 34.12,-32.198 z m 8.254,-308.249 c 0,-6.682 5.423,-12.105 12.105,-12.105 6.682,0 12.105,5.423 12.105,12.105 V 304.31 c 0,6.679 -5.423,12.105 -12.105,12.105 -6.682,0 -12.105,-5.427 -12.105,-12.105 z"
       id="path80"
       style="fill:#c8beb7" /></g></g></g><rect
     style="display:inline;fill:#c8beb7"
     id="rect1725"
     width="68.087021"
     height="288.28333"
     x="76.778976"
     y="28.9732" /></g><g
   inkscape:groupmode="layer"
   id="layer2"
   inkscape:label="Trash"
   style="display:inline"
   sodipodi:insensitive="true"><path
     d="m 207.87805,55.551 h 52.16108 v 8.076126 h 18.83713 v -9.206698 c 0.005,-8.935016 -7.89345,-16.204846 -17.59895,-16.204846 h -54.63745 c -9.70549,0 -17.60133,7.26983 -17.60133,16.204846 v 9.206698 h 18.83952 z m 0,0"
     id="path266"
     style="display:inline;fill:#ffffff;fill-opacity:1;stroke-width:0.584728" /><path
     d="M 322.37958,132.3071 H 145.53764 c -4.8456,0 -8.66018,3.80363 -8.26968,8.24923 l 14.78446,168.2184 c 0.82386,9.39074 9.33641,16.62333 19.56338,16.62333 H 296.299 c 10.22698,0 18.73954,-7.23259 19.56343,-16.62552 l 14.78442,-168.21621 c 0.3929,-4.4456 -3.4217,-8.24923 -8.26727,-8.24923 z M 188.35754,307.45573 c -0.19764,0.0104 -0.39528,0.0175 -0.59053,0.0175 -4.93847,0 -9.08402,-3.53852 -9.39118,-8.13529 l -9.26499,-138.09832 c -0.31906,-4.77863 3.63123,-8.8912 8.8221,-9.1848 5.1742,-0.28921 9.66264,3.33694 9.98171,8.11777 l 9.26261,138.09834 c 0.32143,4.77862 -3.62885,8.88899 -8.81972,9.18478 z m 55.12558,-8.65019 c 0,4.78521 -4.21698,8.66552 -9.41976,8.66552 -5.20277,0 -9.41975,-3.88031 -9.41975,-8.66552 V 160.70503 c 0,-4.78741 4.21698,-8.66771 9.41975,-8.66771 5.20039,0 9.41976,3.8803 9.41976,8.66771 z m 55.32324,-137.59 -8.84593,138.09832 c -0.29288,4.60555 -4.44555,8.1572 -9.39358,8.1572 -0.1857,0 -0.37383,-0.005 -0.56192,-0.0131 -5.19326,-0.28264 -9.15547,-4.38424 -8.8483,-9.16288 l 8.84355,-138.10056 c 0.30476,-4.77864 4.74797,-8.4245 9.95549,-8.14187 5.19326,0.28046 9.15543,4.38426 8.85069,9.16289 z m 0,0"
     id="path268"
     style="display:inline;fill:#ffffff;fill-opacity:1;stroke-width:0.584728" /><path
     d="m 354.95346,105.55904 -6.1862,-17.063738 c -1.63108,-4.498184 -6.2076,-7.532747 -11.36273,-7.532747 H 130.51031 c -5.15277,0 -9.73168,3.034563 -11.36038,7.532747 l -6.18617,17.063738 c -1.19296,3.29092 0.35954,6.64757 3.25739,8.32152 1.18104,0.6814 2.57875,1.09113 4.1146,1.09113 h 227.24572 c 1.53586,0 2.93592,-0.40973 4.11461,-1.09332 2.89781,-1.67395 4.45035,-5.0306 3.25738,-8.31933 z m 0,0"
     id="path270"
     style="display:inline;fill:#ffffff;fill-opacity:1;stroke-width:0.584728" /></g></svg>
